<?xml version="1.0" standalone="no"?>
<!DOCTYPE svg PUBLIC "-//W3C//DTD SVG 20010904//EN"
 "http://www.w3.org/TR/2001/REC-SVG-20010904/DTD/svg10.dtd">
<svg version="1.0" xmlns="http://www.w3.org/2000/svg"
 width="450.000000pt" height="450.000000pt" viewBox="0 0 450.000000 450.000000"
 preserveAspectRatio="xMidYMid meet">
<metadata>
Created by potrace 1.11, written by Peter Selinger 2001-2013
</metadata>
<g transform="translate(0.000000,450.000000) scale(0.100000,-0.100000)"
fill="#000000" stroke="none">
<path d="M379 4485 c-88 -24 -163 -68 -229 -135 -73 -73 -103 -124 -131 -220
-18 -62 -19 -132 -19 -1885 0 -1973 -3 -1846 54 -1968 49 -102 144 -191 260
-241 l71 -31 1835 -2 c1279 -2 1850 1 1885 8 160 35 294 150 364 312 l26 62 3
1820 c2 1278 0 1839 -8 1885 -31 186 -179 344 -370 394 -47 13 -312 15 -1875
14 -1441 0 -1830 -2 -1866 -13z m3792 -127 c107 -53 182 -140 213 -247 14 -49
16 -241 14 -1885 l-3 -1831 -27 -55 c-54 -109 -136 -182 -246 -219 -61 -21
-69 -21 -1874 -20 -1800 0 -1813 0 -1874 20 -118 40 -216 139 -254 258 l-21
66 3 1830 3 1830 39 73 c49 92 119 156 212 194 l69 27 1836 -2 1835 -2 75 -37z"/>
<path d="M2680 3833 c-61 -16 -93 -38 -172 -116 -80 -78 -105 -116 -122 -183
-14 -54 -16 -156 -16 -766 l0 -703 -222 1 c-123 1 -225 2 -228 3 -3 0 -5 31
-5 69 2 97 -21 189 -59 237 -40 51 -148 160 -206 207 -67 54 -135 65 -420 63
-252 -2 -328 -11 -376 -48 -53 -40 -221 -213 -237 -243 -32 -62 -37 -130 -31
-397 9 -410 13 -449 62 -517 45 -63 546 -555 582 -572 19 -9 51 -19 70 -23 19
-4 386 -8 815 -10 870 -2 862 -2 943 63 56 45 510 499 549 549 58 73 57 64 58
1083 1 1003 1 1005 -50 1082 -33 50 -170 185 -196 193 -10 4 -19 11 -19 17 0
6 -3 9 -6 5 -3 -3 -26 1 -51 8 -68 21 -587 19 -663 -2z"/>
</g>
</svg>
